<?xml version="1.0" encoding="UTF-8"?>
<svg width="214px" height="50px" viewBox="0 0 214 50" version="1.1" xmlns="http://www.w3.org/2000/svg" xmlns:xlink="http://www.w3.org/1999/xlink">
    <title>CD/Logo/OG</title>
    <g id="CD/Logo/OG" stroke="none" stroke-width="1" fill="none" fill-rule="evenodd">
        <rect x="0" y="0" width="214" height="50"></rect>
        <g id="hydac_logo_web" transform="translate(0.217391, 0.434783)">
            <path d="M188.695652,1.08695652 C201.630435,1.08695652 212.173913,11.6304348 212.173913,24.5652174 C212.173913,37.5 201.630435,48.0434783 188.695652,48.0434783 C188.695652,48.0434783 188.695652,48.0434783 188.695652,48.0434783 L24.5652174,48.0434783 C11.6304348,48.0434783 1.08695652,37.5 1.08695652,24.5652174 L1.08695652,24.5652174 C1.08695652,11.6304348 11.6304348,1.08695652 24.5652174,1.08695652 L188.695652,1.08695652 Z" id="Pfad_71749" fill="#FFFFFF" fill-rule="nonzero"></path>
            <path d="M189.685723,-1.55431223e-15 C202.763707,-1.55431223e-15 213.423913,11.0682116 213.423913,24.6467391 C213.423913,38.2252667 202.763707,49.2934783 189.685723,49.2934783 L23.7381901,49.2934783 C10.6602057,49.2934783 0,38.2252667 0,24.6467391 C0,11.0682116 10.6602057,-1.55431223e-15 23.7381901,-1.55431223e-15 L189.685723,-1.55431223e-15 Z" id="Pfad_71750" fill="#FFFFFF"></path>
            <path d="M188.695652,1.08695652 C201.630435,1.08695652 212.173913,11.6304348 212.173913,24.5652174 C212.173913,37.5 201.630435,48.0434783 188.695652,48.0434783 C188.695652,48.0434783 188.695652,48.0434783 188.695652,48.0434783 L24.5652174,48.0434783 C11.6304348,48.0434783 1.08695652,37.5 1.08695652,24.5652174 L1.08695652,24.5652174 C1.08695652,11.6304348 11.6304348,1.08695652 24.5652174,1.08695652 L188.695652,1.08695652 Z" id="Pfad_71751" fill="#D9000D" fill-rule="nonzero"></path>
            <path d="M124.23913,35.7608696 C124.23913,39.5652174 121.086957,42.7173913 117.282609,42.7173913 L116.195652,42.7173913 L89.5652174,42.7173913 L89.5652174,7.06521739 L74.673913,28.3695652 L74.673913,42.7173913 L65.1086957,42.7173913 L65.1086957,28.3695652 L50.2173913,7.06521739 L50.2173913,42.6086957 L41.0869565,42.6086957 L41.0869565,27.2826087 L24.5652174,27.2826087 L24.5652174,42.7173913 L15.5434783,42.7173913 L15.5434783,6.41304348 L24.5652174,6.41304348 L24.5652174,21.8478261 L41.0869565,21.8478261 L41.0869565,6.41304348 L60.5434783,6.41304348 L69.8913043,20.2173913 L79.2391304,6.41304348 L116.304348,6.41304348 L117.391304,6.41304348 C121.195652,6.41304348 124.347826,9.56521739 124.347826,13.3695652 C124.347826,13.3695652 124.347826,13.3695652 124.347826,13.3695652 L124.347826,14.4565217 L124.347826,34.673913 L124.23913,35.7608696 Z M110.978261,37.3913043 L98.6956522,37.3913043 L98.6956522,11.7391304 L110.978261,11.7391304 L111.521739,11.7391304 C113.586957,11.7391304 115.217391,13.3695652 115.217391,15.4347826 L115.217391,33.5869565 C115.217391,35.6521739 113.586957,37.2826087 111.521739,37.2826087 L111.521739,37.2826087 L110.978261,37.3913043 Z" id="Pfad_71752" fill="#FFFFFF"></path>
            <path d="M173.804348,33.0434783 L173.804348,16.0869565 L173.804348,15.5434783 C173.804348,13.4782609 175.434783,11.8478261 177.5,11.8478261 C177.5,11.8478261 177.5,11.8478261 177.5,11.8478261 L178.043478,11.8478261 L186.086957,11.8478261 L186.630435,11.8478261 C188.695652,11.8478261 190.326087,13.4782609 190.326087,15.5434783 L190.326087,15.5434783 L199.347826,15.5434783 L199.347826,14.4565217 L199.347826,13.3695652 C199.347826,9.56521739 196.195652,6.41304348 192.391304,6.41304348 L191.304348,6.41304348 L172.608696,6.41304348 L171.521739,6.41304348 C167.717391,6.41304348 164.565217,9.56521739 164.565217,13.3695652 L164.565217,13.3695652 L164.565217,14.4565217 L164.565217,34.673913 L164.565217,35.7608696 C164.565217,39.5652174 167.717391,42.7173913 171.521739,42.7173913 L172.608696,42.7173913 L191.304348,42.7173913 L192.391304,42.7173913 C196.195652,42.7173913 199.347826,39.5652174 199.347826,35.7608696 L199.347826,34.673913 L199.347826,33.5869565 L190.326087,33.5869565 L190.326087,33.5869565 C190.326087,35.6521739 188.695652,37.2826087 186.630435,37.2826087 L177.608696,37.2826087 C175.543478,37.2826087 173.913043,35.6521739 173.913043,33.5869565 L173.804348,33.0434783 Z" id="Pfad_71753" fill="#FFFFFF"></path>
            <path d="M139.021739,29.8913043 L144.456522,17.6086957 L149.891304,29.8913043 L139.021739,29.8913043 Z M133.369565,42.7173913 L136.73913,35.2173913 L152.391304,35.2173913 L155.76087,42.6086957 L165.978261,42.6086957 L148.804348,6.41304348 L140.217391,6.41304348 L123.152174,42.6086957 L133.369565,42.6086957 L133.369565,42.7173913 Z" id="Pfad_71754" fill="#FFFFFF"></path>
        </g>
    </g>
</svg>